<svg xmlns="http://www.w3.org/2000/svg" viewBox="7634.764 748 12.236 12.95">
  <defs>
    <style>
      .cls-1 {
        fill: #fff;
      }
    </style>
  </defs>
  <g id="_002-arrows" data-name="002-arrows" transform="translate(7622.49 748)">
    <path id="Path_5" data-name="Path 5" class="cls-1" d="M24.2,5.727,18.792.316a1.054,1.054,0,0,0-1.5,0l-.623.623a.988.988,0,0,0-.316.748.988.988,0,0,0,.316.748L19.1,4.879H13.247a.886.886,0,0,0-.7.312,1.11,1.11,0,0,0-.27.752V7.007a1.11,1.11,0,0,0,.27.752.885.885,0,0,0,.7.312H19.1l-2.435,2.436a1.063,1.063,0,0,0,0,1.513l.623.623a1.074,1.074,0,0,0,1.5,0L24.2,7.231a1.028,1.028,0,0,0,.308-.756A.984.984,0,0,0,24.2,5.727Z" transform="translate(0 0)"/>
  </g>
</svg>
