<svg xmlns="http://www.w3.org/2000/svg" viewBox="8674 27 15 15">
  <defs>
    <style>
      .cls-1 {
        fill: #57bc75;
      }
    </style>
  </defs>
  <path id="checked" class="cls-1" d="M7.5,0A7.5,7.5,0,1,0,15,7.5,7.478,7.478,0,0,0,7.5,0Zm4.33,5.148h0L6.375,10.807a.309.309,0,0,1-.239.1.265.265,0,0,1-.239-.1L3.239,7.943,3.17,7.875a.33.33,0,0,1,0-.477l.477-.477a.33.33,0,0,1,.477,0l.034.034L6.034,8.966a.165.165,0,0,0,.239,0l4.568-4.739h.034a.33.33,0,0,1,.477,0l.477.477a.291.291,0,0,1,0,.443Z" transform="translate(8674 27)"/>
</svg>
