<svg xmlns="http://www.w3.org/2000/svg" viewBox="10204.887 2560 17.489 17.495">
  <defs>
    <style>
      .cls-1 {
        fill: #fff;
      }
    </style>
  </defs>
  <g id="Group_275" data-name="Group 275" transform="translate(10204.865 2560.027)">
    <path id="Path_69" data-name="Path 69" class="cls-1" d="M17.5,14.37a1.347,1.347,0,0,0-.665-.993l-4.318-2.486a1.355,1.355,0,0,0-1.632.215l-.85.85A.621.621,0,0,1,9.2,12a25.037,25.037,0,0,1-1.961-1.764A25.037,25.037,0,0,1,5.479,8.277a.62.62,0,0,1,.045-.831l.85-.85a1.355,1.355,0,0,0,.215-1.632L4.108.65a1.347,1.347,0,0,0-.993-.665A1.332,1.332,0,0,0,1.981.37L.7,1.651c-.891.9-.907,2.527-.038,4.6a20.325,20.325,0,0,0,4.382,6.184,20.342,20.342,0,0,0,6.184,4.386,7.225,7.225,0,0,0,2.708.642,2.585,2.585,0,0,0,1.9-.68l1.281-1.281A1.347,1.347,0,0,0,17.5,14.37Zm-5.262-2.988,4.314,2.486a.787.787,0,0,1,.238,1.148l-5.734-3.271.234-.234a.783.783,0,0,1,.948-.128ZM3.042.548A.789.789,0,0,1,3.62.933L6.1,5.247a.789.789,0,0,1-.125.948l-.215.215L2.472.7A.789.789,0,0,1,2.936.54c.034,0,.068,0,.106.008Zm12.39,15.835c-.71.71-2.161.68-3.985-.083a19.769,19.769,0,0,1-6-4.261,19.748,19.748,0,0,1-4.261-6C.421,4.212.39,2.762,1.1,2.051L2.053,1.1,5.347,6.826l-.223.223a1.187,1.187,0,0,0-.087,1.587,24.794,24.794,0,0,0,1.806,2.006,25.449,25.449,0,0,0,2.006,1.806,1.187,1.187,0,0,0,1.587-.087l.2-.2,5.742,3.279-.944.944Z" transform="translate(0 0)"/>
  </g>
</svg>
