<svg xmlns="http://www.w3.org/2000/svg" viewBox="8904.848 572.181 13 15.503">
  <g id="_002-dustbin" data-name="002-dustbin" transform="translate(8845.929 572.181)">
    <g id="Group_52" data-name="Group 52" transform="translate(58.919 0)">
      <g id="Group_51" data-name="Group 51" transform="translate(0 0)">
        <path id="Path_53" data-name="Path 53" d="M127.851,210.878a.242.242,0,1,1,.484,0v9.293a1.5,1.5,0,0,1-1.494,1.494h-7.509a1.5,1.5,0,0,1-1.494-1.494v-9.293a.242.242,0,1,1,.484,0v9.293a1.014,1.014,0,0,0,1.009,1.009h7.509a1.015,1.015,0,0,0,1.009-1.009v-9.293Z" transform="translate(-116.587 -206.162)"/>
        <path id="Path_54" data-name="Path 54" d="M257.542,222.429a.242.242,0,0,1-.484,0v-8.6a.242.242,0,1,1,.484,0Z" transform="translate(-252.849 -209.045)"/>
        <path id="Path_55" data-name="Path 55" d="M354,222.429a.242.242,0,0,1-.484,0v-8.6a.242.242,0,1,1,.484,0Z" transform="translate(-347.258 -209.045)"/>
        <path id="Path_56" data-name="Path 56" d="M450.481,222.429a.242.242,0,0,1-.484,0v-8.6a.242.242,0,1,1,.484,0v8.6Z" transform="translate(-441.69 -209.045)"/>
        <path id="Path_57" data-name="Path 57" d="M250.891,1.494a.242.242,0,1,1-.484,0A1.5,1.5,0,0,1,251.9,0h1.877a1.5,1.5,0,0,1,1.494,1.494.242.242,0,1,1-.484,0A1.014,1.014,0,0,0,253.779.484H251.9a1.014,1.014,0,0,0-1.01,1.009Z" transform="translate(-246.339 0)"/>
        <path id="Path_58" data-name="Path 58" d="M59.787,103.108H71.051a.865.865,0,0,1,.612.255h0a.865.865,0,0,1,.255.612v.626a.242.242,0,0,1-.242.242H59.161a.242.242,0,0,1-.242-.242v-.626a.865.865,0,0,1,.255-.612h0a.865.865,0,0,1,.612-.255Zm11.264.484H59.787a.381.381,0,0,0-.27.112h0a.38.38,0,0,0-.112.271v.384H71.434v-.384a.381.381,0,0,0-.112-.271h0A.38.38,0,0,0,71.051,103.592Z" transform="translate(-58.919 -100.918)"/>
      </g>
    </g>
  </g>
</svg>
