<svg xmlns="http://www.w3.org/2000/svg" viewBox="8837.848 573.251 15 15">
  <path id="_002-edit-1" data-name="002-edit-1" d="M14.285.714a2.447,2.447,0,0,0-3.456,0L1.039,10.5s-.007.01-.011.015l-.016.021a.264.264,0,0,0-.034.065c0,.007-.006.013-.008.02l0,.008-.96,4.032A.269.269,0,0,0,0,14.72s0,.007,0,.01a.27.27,0,0,0,.018.09c0,.007.005.013.008.019a.271.271,0,0,0,.053.08.273.273,0,0,0,.089.059.27.27,0,0,0,.1.02.273.273,0,0,0,.063-.007l4.032-.96a.2.2,0,0,0,.021-.008l.027-.011a.267.267,0,0,0,.055-.033c.007-.005.013-.009.02-.015l.007-.005L14.285,4.17A2.446,2.446,0,0,0,14.285.714ZM13.9,1.1a1.9,1.9,0,0,1,.176,2.481L11.421.922A1.9,1.9,0,0,1,13.9,1.1ZM12.557,5.13,9.87,2.442l.384-.384,2.688,2.688ZM1.347,13.653a.271.271,0,0,0-.384,0l-.206.206.693-2.913,1.2-.133L2.5,12.2a.271.271,0,0,0,0,.03.277.277,0,0,0,0,.03c0,.009.006.016.008.025a.276.276,0,0,0,.014.045.264.264,0,0,0,.026.049.257.257,0,0,0,.027.034.272.272,0,0,0,.043.036.276.276,0,0,0,.037.023.283.283,0,0,0,.056.018.284.284,0,0,0,.029.01l.03,0h0l.03,0,1.391-.154-.133,1.2-2.913.693.206-.206A.272.272,0,0,0,1.347,13.653Zm3.407-1.487,6.075-6.076a.271.271,0,0,0-.384-.384L4.37,11.781l-1.3.144.144-1.3L9.294,4.554A.271.271,0,0,0,8.91,4.17L2.834,10.245l-.864.1L9.486,2.826l2.688,2.688L4.658,13.029Zm8.571-7.8L10.637,1.674l.384-.384,2.688,2.688Z" transform="translate(8837.848 573.251)"/>
</svg>
