<svg xmlns="http://www.w3.org/2000/svg" viewBox="10207 2591 19.361 13.74">
  <defs>
    <style>
      .cls-1 {
        fill: #fff;
      }
    </style>
  </defs>
  <g id="Group_277" data-name="Group 277" transform="translate(10207 2591)">
    <g id="Group_276" data-name="Group 276" transform="translate(3.341 6.589)">
      <path id="Path_70" data-name="Path 70" class="cls-1" d="M22.753,14.616a.229.229,0,0,1-.187-.062l-3.622-3.373a.309.309,0,0,1,.437-.437L23,14.116a.3.3,0,0,1,0,.437A.376.376,0,0,1,22.753,14.616Z" transform="translate(-10.419 -10.588)"/>
      <path id="Path_71" data-name="Path 71" class="cls-1" d="M5.694,14.578a.473.473,0,0,1-.25-.125.3.3,0,0,1,0-.437l3.622-3.373a.309.309,0,0,1,.437.437L5.881,14.453C5.818,14.578,5.756,14.578,5.694,14.578Z" transform="translate(-5.35 -10.55)"/>
    </g>
    <path id="Path_72" data-name="Path 72" class="cls-1" d="M17.8,13.74H1.561A1.546,1.546,0,0,1,0,12.179V1.561A1.546,1.546,0,0,1,1.561,0H17.8a1.546,1.546,0,0,1,1.561,1.561V12.179A1.546,1.546,0,0,1,17.8,13.74ZM1.561.625a.961.961,0,0,0-.937.937V12.179a.92.92,0,0,0,.937.937H17.8a.961.961,0,0,0,.937-.937V1.561A.961.961,0,0,0,17.8.625Z" transform="translate(0)"/>
    <path id="Path_73" data-name="Path 73" class="cls-1" d="M9.924,8.713A1.505,1.505,0,0,1,8.8,8.276L.744,1.343a.3.3,0,0,1,0-.437.3.3,0,0,1,.437,0L9.175,7.9a1.139,1.139,0,0,0,1.5,0L18.668.844a.309.309,0,1,1,.437.437L11.049,8.338A1.744,1.744,0,0,1,9.924,8.713Z" transform="translate(-0.244 -0.282)"/>
  </g>
</svg>
