<svg xmlns="http://www.w3.org/2000/svg" viewBox="10491 2424 26 26">
  <defs>
    <style>
      .cls-1 {
        fill: #57bc75;
      }
    </style>
  </defs>
  <g id="Group_282" data-name="Group 282" transform="translate(10491 2424)">
    <path id="Path_87" data-name="Path 87" class="cls-1" d="M13,0A13,13,0,1,0,26,13,13.006,13.006,0,0,0,13,0Zm1.086,21.737a2.326,2.326,0,0,1-1.695.609,2.549,2.549,0,0,1-1.721-.582,2.261,2.261,0,0,1-.609-1.668,2.18,2.18,0,0,1,.609-1.668,2.455,2.455,0,0,1,1.721-.582,2.314,2.314,0,0,1,1.695.582,2.261,2.261,0,0,1,.609,1.668A2.046,2.046,0,0,1,14.086,21.737ZM18.11,10.67a9.221,9.221,0,0,1-2.356,2.251,8.874,8.874,0,0,0-1.43,1.244,1.8,1.8,0,0,0-.265,1.059v.53a.407.407,0,0,1-.4.4H10.855a.407.407,0,0,1-.4-.4v-.688a4.261,4.261,0,0,1,.53-2.118,7.184,7.184,0,0,1,1.853-1.88,8.219,8.219,0,0,0,1.642-1.43,2.031,2.031,0,0,0,.371-1.165,1.168,1.168,0,0,0-.5-1.033,2.641,2.641,0,0,0-1.509-.371A8.864,8.864,0,0,0,8.976,8.155a.383.383,0,0,1-.53-.185l-1.138-2.3a.394.394,0,0,1,.159-.53,11.819,11.819,0,0,1,5.64-1.43,6.3,6.3,0,0,1,4.077,1.244,4.06,4.06,0,0,1,1.536,3.336A4.216,4.216,0,0,1,18.11,10.67Z"/>
  </g>
</svg>
