<svg xmlns="http://www.w3.org/2000/svg" xmlns:xlink="http://www.w3.org/1999/xlink" viewBox="4595.5 2463.5 781 10">
  <defs>
    <style>
      .cls-1, .cls-3 {
        fill: none;
      }

      .cls-2 {
        clip-path: url(#clip-path);
      }

      .cls-3 {
        stroke: #d2d2d2;
      }
    </style>
    <clipPath id="clip-path">
      <rect class="cls-1" width="781" height="10"/>
    </clipPath>
  </defs>
  <g id="Repeat_Grid_12" data-name="Repeat Grid 12" class="cls-2" transform="translate(4595.5 2463.5)">
    <g transform="translate(-704.5 -718.5)">
      <line id="Line_2" data-name="Line 2" class="cls-3" y2="10" transform="translate(704.5 718.5)"/>
    </g>
    <g transform="translate(-688.5 -718.5)">
      <line id="Line_2-2" data-name="Line 2" class="cls-3" y2="10" transform="translate(704.5 718.5)"/>
    </g>
    <g transform="translate(-672.5 -718.5)">
      <line id="Line_2-3" data-name="Line 2" class="cls-3" y2="10" transform="translate(704.5 718.5)"/>
    </g>
    <g transform="translate(-656.5 -718.5)">
      <line id="Line_2-4" data-name="Line 2" class="cls-3" y2="10" transform="translate(704.5 718.5)"/>
    </g>
    <g transform="translate(-640.5 -718.5)">
      <line id="Line_2-5" data-name="Line 2" class="cls-3" y2="10" transform="translate(704.5 718.5)"/>
    </g>
    <g transform="translate(-624.5 -718.5)">
      <line id="Line_2-6" data-name="Line 2" class="cls-3" y2="10" transform="translate(704.5 718.5)"/>
    </g>
    <g transform="translate(-608.5 -718.5)">
      <line id="Line_2-7" data-name="Line 2" class="cls-3" y2="10" transform="translate(704.5 718.5)"/>
    </g>
    <g transform="translate(-592.5 -718.5)">
      <line id="Line_2-8" data-name="Line 2" class="cls-3" y2="10" transform="translate(704.5 718.5)"/>
    </g>
    <g transform="translate(-576.5 -718.5)">
      <line id="Line_2-9" data-name="Line 2" class="cls-3" y2="10" transform="translate(704.5 718.5)"/>
    </g>
    <g transform="translate(-560.5 -718.5)">
      <line id="Line_2-10" data-name="Line 2" class="cls-3" y2="10" transform="translate(704.5 718.5)"/>
    </g>
    <g transform="translate(-544.5 -718.5)">
      <line id="Line_2-11" data-name="Line 2" class="cls-3" y2="10" transform="translate(704.5 718.5)"/>
    </g>
    <g transform="translate(-528.5 -718.5)">
      <line id="Line_2-12" data-name="Line 2" class="cls-3" y2="10" transform="translate(704.5 718.5)"/>
    </g>
    <g transform="translate(-512.5 -718.5)">
      <line id="Line_2-13" data-name="Line 2" class="cls-3" y2="10" transform="translate(704.5 718.5)"/>
    </g>
    <g transform="translate(-496.5 -718.5)">
      <line id="Line_2-14" data-name="Line 2" class="cls-3" y2="10" transform="translate(704.5 718.5)"/>
    </g>
    <g transform="translate(-480.5 -718.5)">
      <line id="Line_2-15" data-name="Line 2" class="cls-3" y2="10" transform="translate(704.5 718.5)"/>
    </g>
    <g transform="translate(-464.5 -718.5)">
      <line id="Line_2-16" data-name="Line 2" class="cls-3" y2="10" transform="translate(704.5 718.5)"/>
    </g>
    <g transform="translate(-448.5 -718.5)">
      <line id="Line_2-17" data-name="Line 2" class="cls-3" y2="10" transform="translate(704.5 718.5)"/>
    </g>
    <g transform="translate(-432.5 -718.5)">
      <line id="Line_2-18" data-name="Line 2" class="cls-3" y2="10" transform="translate(704.5 718.5)"/>
    </g>
    <g transform="translate(-416.5 -718.5)">
      <line id="Line_2-19" data-name="Line 2" class="cls-3" y2="10" transform="translate(704.5 718.5)"/>
    </g>
    <g transform="translate(-400.5 -718.5)">
      <line id="Line_2-20" data-name="Line 2" class="cls-3" y2="10" transform="translate(704.5 718.5)"/>
    </g>
    <g transform="translate(-384.5 -718.5)">
      <line id="Line_2-21" data-name="Line 2" class="cls-3" y2="10" transform="translate(704.5 718.5)"/>
    </g>
    <g transform="translate(-368.5 -718.5)">
      <line id="Line_2-22" data-name="Line 2" class="cls-3" y2="10" transform="translate(704.5 718.5)"/>
    </g>
    <g transform="translate(-352.5 -718.5)">
      <line id="Line_2-23" data-name="Line 2" class="cls-3" y2="10" transform="translate(704.5 718.5)"/>
    </g>
    <g transform="translate(-336.5 -718.5)">
      <line id="Line_2-24" data-name="Line 2" class="cls-3" y2="10" transform="translate(704.5 718.5)"/>
    </g>
    <g transform="translate(-320.5 -718.5)">
      <line id="Line_2-25" data-name="Line 2" class="cls-3" y2="10" transform="translate(704.5 718.5)"/>
    </g>
    <g transform="translate(-304.5 -718.5)">
      <line id="Line_2-26" data-name="Line 2" class="cls-3" y2="10" transform="translate(704.5 718.5)"/>
    </g>
    <g transform="translate(-288.5 -718.5)">
      <line id="Line_2-27" data-name="Line 2" class="cls-3" y2="10" transform="translate(704.5 718.5)"/>
    </g>
    <g transform="translate(-272.5 -718.5)">
      <line id="Line_2-28" data-name="Line 2" class="cls-3" y2="10" transform="translate(704.5 718.5)"/>
    </g>
    <g transform="translate(-256.5 -718.5)">
      <line id="Line_2-29" data-name="Line 2" class="cls-3" y2="10" transform="translate(704.5 718.5)"/>
    </g>
    <g transform="translate(-240.5 -718.5)">
      <line id="Line_2-30" data-name="Line 2" class="cls-3" y2="10" transform="translate(704.5 718.5)"/>
    </g>
    <g transform="translate(-224.5 -718.5)">
      <line id="Line_2-31" data-name="Line 2" class="cls-3" y2="10" transform="translate(704.5 718.5)"/>
    </g>
    <g transform="translate(-208.5 -718.5)">
      <line id="Line_2-32" data-name="Line 2" class="cls-3" y2="10" transform="translate(704.5 718.5)"/>
    </g>
    <g transform="translate(-192.5 -718.5)">
      <line id="Line_2-33" data-name="Line 2" class="cls-3" y2="10" transform="translate(704.5 718.5)"/>
    </g>
    <g transform="translate(-176.5 -718.5)">
      <line id="Line_2-34" data-name="Line 2" class="cls-3" y2="10" transform="translate(704.5 718.5)"/>
    </g>
    <g transform="translate(-160.5 -718.5)">
      <line id="Line_2-35" data-name="Line 2" class="cls-3" y2="10" transform="translate(704.5 718.5)"/>
    </g>
    <g transform="translate(-144.5 -718.5)">
      <line id="Line_2-36" data-name="Line 2" class="cls-3" y2="10" transform="translate(704.5 718.5)"/>
    </g>
    <g transform="translate(-128.5 -718.5)">
      <line id="Line_2-37" data-name="Line 2" class="cls-3" y2="10" transform="translate(704.5 718.5)"/>
    </g>
    <g transform="translate(-112.5 -718.5)">
      <line id="Line_2-38" data-name="Line 2" class="cls-3" y2="10" transform="translate(704.5 718.5)"/>
    </g>
    <g transform="translate(-96.5 -718.5)">
      <line id="Line_2-39" data-name="Line 2" class="cls-3" y2="10" transform="translate(704.5 718.5)"/>
    </g>
    <g transform="translate(-80.5 -718.5)">
      <line id="Line_2-40" data-name="Line 2" class="cls-3" y2="10" transform="translate(704.5 718.5)"/>
    </g>
    <g transform="translate(-64.5 -718.5)">
      <line id="Line_2-41" data-name="Line 2" class="cls-3" y2="10" transform="translate(704.5 718.5)"/>
    </g>
    <g transform="translate(-48.5 -718.5)">
      <line id="Line_2-42" data-name="Line 2" class="cls-3" y2="10" transform="translate(704.5 718.5)"/>
    </g>
    <g transform="translate(-32.5 -718.5)">
      <line id="Line_2-43" data-name="Line 2" class="cls-3" y2="10" transform="translate(704.5 718.5)"/>
    </g>
    <g transform="translate(-16.5 -718.5)">
      <line id="Line_2-44" data-name="Line 2" class="cls-3" y2="10" transform="translate(704.5 718.5)"/>
    </g>
    <g transform="translate(-0.5 -718.5)">
      <line id="Line_2-45" data-name="Line 2" class="cls-3" y2="10" transform="translate(704.5 718.5)"/>
    </g>
    <g transform="translate(15.5 -718.5)">
      <line id="Line_2-46" data-name="Line 2" class="cls-3" y2="10" transform="translate(704.5 718.5)"/>
    </g>
    <g transform="translate(31.5 -718.5)">
      <line id="Line_2-47" data-name="Line 2" class="cls-3" y2="10" transform="translate(704.5 718.5)"/>
    </g>
    <g transform="translate(47.5 -718.5)">
      <line id="Line_2-48" data-name="Line 2" class="cls-3" y2="10" transform="translate(704.5 718.5)"/>
    </g>
    <g transform="translate(63.5 -718.5)">
      <line id="Line_2-49" data-name="Line 2" class="cls-3" y2="10" transform="translate(704.5 718.5)"/>
    </g>
  </g>
</svg>
